<svg width="190" height="192" viewBox="0 0 190 192" fill="none" xmlns="http://www.w3.org/2000/svg">
<rect width="190" height="192" rx="39" fill="#0C0A09"/>
<path d="M95 18.5C76.5012 18.5 58.76 25.8486 45.6793 38.9293C32.5986 52.01 25.25 69.7512 25.25 88.25C25.25 120.568 47.26 147.693 77.0975 155.598L95 173.5L112.903 155.598C142.74 147.693 164.75 120.568 164.75 88.25C164.75 69.7512 157.401 52.01 144.321 38.9293C131.24 25.8486 113.499 18.5 95 18.5ZM95 34C107.865 34 118.25 44.385 118.25 57.25C118.25 70.115 107.865 80.5 95 80.5C82.135 80.5 71.75 70.115 71.75 57.25C71.75 44.385 82.135 34 95 34ZM95 144.825C85.7919 144.825 76.7269 142.546 68.6134 138.192C60.4999 133.838 53.59 127.543 48.5 119.87C48.7325 104.447 79.5 96 95 96C110.423 96 141.268 104.447 141.5 119.87C136.41 127.543 129.5 133.838 121.387 138.192C113.273 142.546 104.208 144.825 95 144.825Z" fill="#F97316"/>
</svg>
